<svg width="46" height="30" viewBox="0 0 46 30" xmlns="http://www.w3.org/2000/svg"><path d="M27.5044 15.36L23.6805 5.48124C23.637 5.36269 23.5648 5.27714 23.4639 5.2246C23.3773 5.17203 23.2764 5.14584 23.1612 5.14605C22.9019 5.1465 22.7292 5.25884 22.6433 5.48306L18.8609 15.3752L16.3327 15.3797L20.5237 4.55755C20.7242 4.01679 21.0547 3.6142 21.5151 3.34977C21.99 3.08532 22.5371 2.95256 23.1566 2.95147C23.7616 2.95041 24.3021 3.08126 24.778 3.34404C25.254 3.60682 25.5934 4.00823 25.7962 4.54829L30.0326 15.3556L27.5044 15.36Z" fill="#009B95"></path><path d="M10.9729 5.45172C11.9662 5.45172 12.9371 5.72122 13.763 6.22614C14.5888 6.73105 15.2325 7.44871 15.6125 8.28833C15.9926 9.12796 16.0919 10.0518 15.8981 10.9432C15.7042 11.8345 15.2258 12.6531 14.5234 13.2957C13.821 13.9382 12.9261 14.3757 11.9519 14.5529C10.9777 14.73 9.96795 14.6389 9.05037 14.291C8.1328 13.943 7.3486 13.3539 6.79696 12.5982C6.24531 11.8425 5.951 10.954 5.95124 10.0452C5.95319 8.82635 6.48377 7.65799 7.42646 6.79673C8.36915 5.93547 9.64689 5.45172 10.9791 5.45172H10.9729ZM10.9791 0.000976625C8.80757 0.000976638 6.68483 0.590158 4.87931 1.69401C3.07378 2.79786 1.66656 4.3668 0.83562 6.20243C0.00467604 8.03805 -0.212675 10.0579 0.211054 12.0065C0.634784 13.9552 1.68056 15.7451 3.21614 17.1499C4.75171 18.5548 6.70811 19.5114 8.83792 19.8989C10.9677 20.2864 13.1753 20.0873 15.1814 19.3268C17.1876 18.5663 18.9022 17.2786 20.1084 15.6265C21.3147 13.9744 21.9584 12.0321 21.9582 10.0452C21.9582 8.72612 21.6742 7.41991 21.1224 6.20121C20.5706 4.98251 19.7619 3.87519 18.7424 2.94248C17.7229 2.00977 16.5125 1.26994 15.1805 0.765231C13.8485 0.260525 12.4208 0.00082927 10.9791 0.000976625Z" fill="#FF7A00"></path><path d="M35.0223 5.45074C36.0156 5.45074 36.9865 5.72024 37.8123 6.22516C38.6382 6.73008 39.2818 7.44773 39.6619 8.28735C40.0419 9.12698 40.1413 10.0509 39.9474 10.9422C39.7536 11.8335 39.2752 12.6522 38.5727 13.2947C37.8703 13.9372 36.9754 14.3747 36.0012 14.5519C35.027 14.729 34.0173 14.6379 33.0997 14.29C32.1822 13.942 31.398 13.353 30.8463 12.5972C30.2947 11.8415 30.0004 10.953 30.0006 10.0443C30.0025 8.82634 30.5323 7.65883 31.4736 6.79773C32.415 5.93663 33.6912 5.45223 35.0223 5.45074ZM35.0223 6.26833e-08C32.8507 -0.000221849 30.7279 0.58877 28.9222 1.69249C27.1165 2.7962 25.7091 4.36507 24.878 6.20067C24.0468 8.03627 23.8293 10.0562 24.2529 12.0049C24.6765 13.9536 25.7222 15.7436 27.2577 17.1486C28.7932 18.5535 30.7496 19.5102 32.8795 19.8978C35.0093 20.2854 37.2169 20.0864 39.2231 19.3259C41.2294 18.5655 42.944 17.2777 44.1504 15.6256C45.3567 13.9735 46.0004 12.0312 46.0001 10.0443C46.0001 7.38036 44.8436 4.82556 42.7848 2.9419C40.7261 1.05823 37.9338 6.26833e-08 35.0223 6.26833e-08Z" fill="#FF7A00"></path><path fill-rule="evenodd" clip-rule="evenodd" d="M29.2442 28.8102C27.4314 28.0246 25.8169 26.8741 24.5249 25.4304L28.5326 21.9973C29.2998 22.8545 30.277 23.5578 31.4016 24.0451C32.5265 24.5326 33.7635 24.7885 35.0215 24.7885C36.2795 24.7885 37.5165 24.5326 38.6414 24.0451C39.766 23.5578 40.7432 22.8545 41.5104 21.9973L45.5181 25.4304C44.2262 26.8741 42.6116 28.0246 40.7988 28.8102C38.9863 29.5956 37.0137 30.0001 35.0215 30.0001C33.0294 30.0001 31.0567 29.5956 29.2442 28.8102Z" fill="#FF7A00"></path></svg>